<svg xmlns="http://www.w3.org/2000/svg" width="1024" height="1024" viewBox="0 0 1024 1024"><path fill="#1e1e1e" d="M0 0h1024v1024H0z"/><path fill="#da3936" d="M490.624 130.74c210.602-11.781 390.877 149.402 402.646 360.005S743.846 881.613 533.242 893.37c-210.586 11.755-390.833-149.422-402.601-360.007-11.768-210.586 149.398-390.842 359.983-402.623"/><path fill="#1e1e1e" d="M492.552 147.581c201.295-10.716 373.156 143.795 383.843 345.091S732.547 865.807 531.249 876.466C329.992 887.122 158.195 732.625 147.51 531.369s143.788-373.075 345.042-383.788"/><path fill="#fefefe" d="M272.355 345.699c9.855-.53 21.954 4.057 26.903 12.992 5.11 9.227 9.272 19.246 13.657 28.867l25.124 55.022 47.733 105.15a7117 7117 0 0 1 33.617 73.908c6.061-12.256 13-29.589 18.701-42.448a5280 5280 0 0 0 33.43-76.094c12.228-29.213 22.12-58.022 40.231-84.572 52.982-77.67 169.292-91.612 244.781-39.92 8.557 5.86 17.163 12.629 18.957 23.613a27.17 27.17 0 0 1-5.132 20.445c-10.609 14.415-27.266 15.588-41.119 4.693-1.997-1.64-4.37-3.476-6.476-4.948a122.38 122.38 0 0 0-90.949-19.688c-27.146 4.736-51.499 18.366-68.688 40.093-19.02 24.044-25.381 54.85-37.067 82.731-14.315 34.158-31.278 67.218-47.191 100.612a3021 3021 0 0 1-17.084 36.074c-8.794 18.308-14.728 34.019-37.278 37.463a40.47 40.47 0 0 1-30.157-7.225c-10.275-7.568-15.861-22.521-21.242-33.82l-19.901-42.075a9684 9684 0 0 1-69.881-147.813l-24.64-51.699c-9.658-20.226-26.82-43.398-6.59-62.687 5.913-5.639 12.319-7.803 20.261-8.674"/><path fill="#fefefe" d="M651.051 498.659c4.332-.464 15.131-.219 19.981-.215l37.611.052 30.964-.039c12.772-.056 27.818-2.074 36.154 9.948 6.756 9.742 5.301 22.184 5.268 33.54l-.067 34.346.082 43.34c.042 24.61 2.7 34.094-19.78 49.287-41.688 28.175-91.94 37.71-141.292 29.116-46.328-8.068-83.867-30.754-110.621-69.604-2.021-3.088-3.543-5.711-5.345-8.94 1.517-3.594 3.408-7.467 5.141-10.971 10.034-20.28 18.703-41.413 28.533-61.753 11.271 66.744 62.296 106.968 130.161 101.253 19.499-1.642 43.03-9.164 58.385-21.755l.038-78.206-48.618.022c-6.233.026-21.541.474-27.206-.301a27.15 27.15 0 0 1-10.989-4.052c-11.521-7.443-14.199-23.289-6.639-34.828 4.053-6.186 11.054-9.127 18.239-10.24"/></svg>